<svg width="56" height="65" viewBox="0 0 56 65" fill="none" xmlns="http://www.w3.org/2000/svg">
<path d="M9.875 49.4167C5.57344 49.4167 3.42265 49.4167 2.08633 48.0805C0.75 46.744 0.75 44.5932 0.75 40.2917C0.75 35.9901 0.75 33.8394 2.08633 32.5029C3.42265 31.1667 5.57344 31.1667 9.875 31.1667" stroke="white" stroke-width="1.5" stroke-linejoin="round"/>
<path d="M35.7292 5.3125C35.7292 7.83231 33.6864 9.875 31.1667 9.875C28.6469 9.875 26.6042 7.83231 26.6042 5.3125C26.6042 2.79269 28.6469 0.75 31.1667 0.75C33.6864 0.75 35.7292 2.79269 35.7292 5.3125Z" stroke="white" stroke-width="1.5"/>
<path d="M31.1667 9.875V19" stroke="white" stroke-width="1.5" stroke-linecap="round" stroke-linejoin="round"/>
<path d="M22.0417 34.2083V37.25" stroke="white" stroke-width="1.5" stroke-linecap="round" stroke-linejoin="round"/>
<path d="M25.0833 47.8958C25.0833 47.8958 27.1112 49.4167 31.1667 49.4167C35.2221 49.4167 37.25 47.8958 37.25 47.8958" stroke="white" stroke-width="1.5" stroke-linecap="round"/>
<path d="M31.6667 19.7497H28.1247C23.8021 19.7497 20.6348 19.751 18.2116 20.0768C15.8103 20.3997 14.2514 21.0292 13.0778 22.2028C11.9042 23.3764 11.2747 24.9353 10.9518 27.3366C10.626 29.7598 10.6247 32.9271 10.6247 37.2497V43.3327C10.6247 47.6552 10.6261 50.8226 10.9518 53.2458C11.2747 55.6471 11.9044 57.2058 13.0778 58.3796C14.2514 59.5532 15.8103 60.1826 18.2116 60.5055C20.6348 60.8313 23.8021 60.8327 28.1247 60.8327H31.6667V62.3327H28.1247C23.8446 62.3327 20.5587 62.3342 18.0124 61.9919C15.4447 61.6466 13.516 60.9397 12.0173 59.4411C10.5186 57.9422 9.81073 56.0128 9.46549 53.445C9.12324 50.8987 9.12467 47.6125 9.12467 43.3327V37.2497C9.12467 32.9696 9.12316 29.6837 9.46549 27.1374C9.81077 24.5695 10.5184 22.6411 12.0173 21.1423C13.5161 19.6434 15.4445 18.9358 18.0124 18.5905C20.5587 18.2482 23.8446 18.2497 28.1247 18.2497H31.6667V19.7497Z" fill="white"/>
<path d="M42.6667 57.5417C46.6432 57.5417 49.8667 54.2508 49.8667 50.1917C49.8667 48.7984 49.487 47.4957 48.8275 46.3856C52.1531 45.7361 54.6667 42.751 54.6667 39.1667C54.6667 35.5823 52.1531 32.5971 48.8275 31.9477M42.6667 57.5417C42.6667 60.9244 39.9803 63.6667 36.6667 63.6667C33.353 63.6667 30.6667 60.9244 30.6667 57.5417V20.7917C30.6667 17.4089 33.353 14.6667 36.6667 14.6667C39.9803 14.6667 42.6667 17.4089 42.6667 20.7917C46.6432 20.7917 49.8667 24.0823 49.8667 28.1416C49.8667 29.5349 49.487 30.8375 48.8275 31.9477M42.6667 57.5417C42.6667 55.5378 41.7239 53.7586 40.2667 52.6412M48.8275 31.9477C47.9719 33.3876 46.6456 34.5036 45.0667 35.0735" stroke="white" stroke-width="1.5" stroke-linecap="round" stroke-linejoin="round"/>
</svg>
